#!OML:ASF H:\MichaelJackson\Top Level 1\Subject 1\Session 1\male.ASF
:FULLY-SPECIFIED
:DEGREES
670
root 3.76484 15.6136 29.5699 4.71435 6.81076 2.01178
lowerback -1.31481 -2.73827 1.96587
upperback 0.390697 -3.66509 -2.29793
thorax 0.863118 -1.8174 -3.52777
lowerneck -6.16541 -1.23187 4.79208
upperneck 5.24942 -2.1985 1.97176
head 2.71468 -0.925168 -0.286804
rclavicle -4.16951e-014 -1.55052e-014
rhumerus 1.52596 -23.6527 -1.94785
rradius 34.9534
rwrist -10.8686
rhand -39.7011 -48.3887
rfingers 7.12502
rthumb -12.6796 -437.984
lclavicle -4.16951e-014 -1.55052e-014
lhumerus -50.6272 -35.7068 113.848
lradius 52.8754
lwrist 30.2095
lhand 25.9312 28.6673
lfingers 7.12502
lthumb 50.0147 49.8823
rfemur -19.6543 -11.3176 -2.64575
rtibia 46.1996
rfoot -25.6681 -3.9487
rtoes -38.7264
lfemur -5.67458 -19.2453 4.32453
ltibia 15.3757
lfoot -20.7037 9.83532
ltoes -34.3717
671
root 3.76249 15.613 29.5641 4.67158 6.72987 1.93413
lowerback -1.29826 -2.70916 1.95657
upperback 0.397367 -3.62579 -2.30141
thorax 0.863998 -1.79766 -3.52501
lowerneck -6.21498 -1.23745 4.79247
upperneck 5.35037 -2.21554 2.0152
head 2.75845 -0.929123 -0.27478
rclavicle 3.09359e-014 2.54444e-014
rhumerus 1.54657 -23.5925 -1.95068
rradius 34.8607
rwrist -10.7368
rhand -39.6901 -48.3588
rfingers 7.12502
rthumb -12.6691 -437.955
lclavicle 3.09359e-014 2.54444e-014
lhumerus -50.6196 -35.7602 113.871
lradius 52.8837
lwrist 30.103
lhand 25.9018 28.6542
lfingers 7.12502
lthumb 49.9878 49.8834
rfemur -19.6964 -11.3294 -2.55833
rtibia 46.2111
rfoot -25.6902 -3.84185
rtoes -38.7159
lfemur -5.61062 -19.3429 4.386
ltibia 15.3836
lfoot -20.6525 10.0104
ltoes -34.4005
672
root 3.76012 15.6122 29.5585 4.63052 6.64596 1.86689
lowerback -1.28123 -2.6806 1.93898
upperback 0.404634 -3.58702 -2.30955
thorax 0.865379 -1.7782 -3.52242
lowerneck -6.2684 -1.24255 4.79149
upperneck 5.45367 -2.23237 2.06073
head 2.80389 -0.932795 -0.261877
rclavicle 4.64659e-015 1.27222e-014
rhumerus 1.5696 -23.5422 -1.9591
rradius 34.7617
rwrist -10.5809
rhand -39.6738 -48.3132
rfingers 7.12502
rthumb -12.6533 -437.91
lclavicle 4.64659e-015 1.27222e-014
lhumerus -50.6125 -35.8123 113.889
lradius 52.8942
lwrist 30.0276
lhand 25.8585 28.6433
lfingers 7.12502
lthumb 49.9482 49.8932
rfemur -19.7419 -11.344 -2.48311
rtibia 46.2281
rfoot -25.7136 -3.72573
rtoes -38.7012
lfemur -5.54727 -19.4493 4.43522
ltibia 15.3959
lfoot -20.6044 10.1882
ltoes -34.4121
673
root 3.75763 15.6113 29.553 4.59207 6.56427 1.80765
lowerback -1.26424 -2.65478 1.91397
upperback 0.412 -3.55177 -2.32199
thorax 0.866783 -1.76054 -3.52015
lowerneck -6.32857 -1.24649 4.7931
upperneck 5.56334 -2.2487 2.10693
head 2.85288 -0.935868 -0.24927
rclavicle 1.80894e-014 -3.77691e-014
rhumerus 1.59443 -23.5021 -1.97795
rradius 34.6669
rwrist -10.4306
rhand -39.6592 -48.2608
rfingers 7.12502
rthumb -12.6392 -437.858
lclavicle 1.80894e-014 -3.77691e-014
lhumerus -50.6073 -35.8639 113.9
lradius 52.9086
lwrist 29.9826
lhand 25.8125 28.6417
lfingers 7.12502
lthumb 49.9061 49.9136
rfemur -19.7888 -11.3606 -2.41671
rtibia 46.249
rfoot -25.7397 -3.60427
rtoes -38.6805
lfemur -5.48762 -19.5493 4.4774
ltibia 15.4097
lfoot -20.56 10.3557
ltoes -34.4198
674
root 3.75497 15.6103 29.5477 4.55633 6.48897 1.75428
lowerback -1.24932 -2.63233 1.88383
upperback 0.421222 -3.52089 -2.33829
thorax 0.87098 -1.74502 -3.51922
lowerneck -6.39409 -1.24979 4.7938
upperneck 5.67137 -2.2651 2.16172
head 2.90255 -0.93862 -0.233753
rclavicle -1.3244e-014 -2.38542e-015
rhumerus 1.61493 -23.4765 -2.00814
rradius 34.587
rwrist -10.3054
rhand -39.6549 -48.2242
rfingers 7.12502
rthumb -12.6351 -437.822
lclavicle -1.3244e-014 -2.38542e-015
lhumerus -50.5998 -35.9187 113.902
lradius 52.923
lwrist 29.9627
lhand 25.7717 28.6474
lfingers 7.12502
lthumb 49.8687 49.9389
rfemur -19.8337 -11.3816 -2.3571
rtibia 46.2716
rfoot -25.7679 -3.48104
rtoes -38.6621
lfemur -5.43426 -19.6314 4.51668
ltibia 15.4234
lfoot -20.5228 10.4982
ltoes -34.4231
675
root 3.75216 15.6093 29.5427 4.52516 6.42318 1.70968
lowerback -1.23776 -2.61311 1.84533
upperback 0.430849 -3.49417 -2.3588
thorax 0.877385 -1.73159 -3.51818
lowerneck -6.46197 -1.25436 4.79696
upperneck 5.77635 -2.28383 2.21969
head 2.95174 -0.942359 -0.217712
rclavicle -3.52843e-015 -3.49861e-014
rhumerus 1.62326 -23.4545 -2.04261
rradius 34.5296
rwrist -10.2258
rhand -39.6633 -48.1917
rfingers 7.12502
rthumb -12.6432 -437.789
lclavicle -3.52843e-015 -3.49861e-014
lhumerus -50.5941 -35.9798 113.901
lradius 52.9358
lwrist 29.962
lhand 25.7363 28.6551
lfingers 7.12502
lthumb 49.8363 49.9634
rfemur -19.8756 -11.4079 -2.30724
rtibia 46.2945
rfoot -25.7994 -3.35647
rtoes -38.6408
lfemur -5.39056 -19.6915 4.55166
ltibia 15.436
lfoot -20.4917 10.6091
ltoes -34.4248
676
root 3.74923 15.6084 29.5379 4.49873 6.36996 1.66477
lowerback -1.23237 -2.5971 1.80745
upperback 0.44169 -3.47178 -2.38038
thorax 0.888051 -1.72024 -3.519
lowerneck -6.53361 -1.26133 4.80851
upperneck 5.87787 -2.30653 2.27364
head 3.00042 -0.948015 -0.204588
rclavicle 2.83765e-014 8.74653e-015
rhumerus 1.61724 -23.4343 -2.07793
rradius 34.4943
rwrist -10.1893
rhand -39.6905 -48.175
rfingers 7.12502
rthumb -12.6694 -437.771
lclavicle 2.83765e-014 8.74653e-015
lhumerus -50.5862 -36.0502 113.897
lradius 52.9431
lwrist 29.976
lhand 25.7178 28.673
lfingers 7.12502
lthumb 49.8194 49.99
rfemur -19.914 -11.4404 -2.25648
rtibia 46.3164
rfoot -25.8314 -3.23594
rtoes -38.6219
lfemur -5.35902 -19.7197 4.59337
ltibia 15.4474
lfoot -20.4688 10.6811
ltoes -34.4308
677
root 3.74623 15.6075 29.5335 4.47678 6.32746 1.6195
lowerback -1.23297 -2.58279 1.77048
upperback 0.452819 -3.45171 -2.40302
thorax 0.902072 -1.70999 -3.52178
lowerneck -6.60169 -1.27132 4.827
upperneck 5.97014 -2.33345 2.32677
head 3.04522 -0.955843 -0.193007
rclavicle -5.56597e-015 4.57205e-014
rhumerus 1.59372 -23.4077 -2.10788
rradius 34.4756
rwrist -10.183
rhand -39.7264 -48.1357
rfingers 7.12502
rthumb -12.7041 -437.729
lclavicle -5.56597e-015 4.57205e-014
lhumerus -50.5788 -36.1305 113.892
lradius 52.9442
lwrist 30.0032
lhand 25.7116 28.702
lfingers 7.12502
lthumb 49.8137 50.022
rfemur -19.9501 -11.4776 -2.20447
rtibia 46.3373
rfoot -25.8633 -3.12235
rtoes -38.6061
lfemur -5.33831 -19.7243 4.64143
ltibia 15.457
lfoot -20.4522 10.7219
ltoes -34.4373
678
root 3.74331 15.6068 29.5293 4.45897 6.29275 1.57104
lowerback -1.24188 -2.56832 1.73669
upperback 0.466253 -3.43149 -2.42432
thorax 0.923013 -1.69952 -3.52545
lowerneck -6.67065 -1.28511 4.84245
upperneck 6.05304 -2.36552 2.38685
head 3.08713 -0.966204 -0.178825
rclavicle -5.86912e-014 -1.19271e-014
rhumerus 1.55804 -23.3819 -2.1299
rradius 34.4615
rwrist -10.1791
rhand -39.772 -48.0807
rfingers 7.12502
rthumb -12.748 -437.672
lclavicle -5.86912e-014 -1.19271e-014
lhumerus -50.5676 -36.2206 113.887
lradius 52.9383
lwrist 30.0402
lhand 25.717 28.7308
lfingers 7.12502
lthumb 49.8186 50.0483
rfemur -19.9856 -11.5184 -2.14813
rtibia 46.3575
rfoot -25.8945 -3.01365
rtoes -38.591
lfemur -5.32714 -19.7139 4.69716
ltibia 15.4667
lfoot -20.4393 10.7445
ltoes -34.4492
679
root 3.74059 15.606 29.5255 4.4443 6.26234 1.51778
lowerback -1.25837 -2.55221 1.70805
upperback 0.481988 -3.40922 -2.44316
thorax 0.950563 -1.68788 -3.52991
lowerneck -6.7421 -1.30258 4.85704
upperneck 6.12891 -2.40253 2.44779
head 3.12715 -0.979109 -0.164419
rclavicle -4.39811e-014 3.97569e-015
rhumerus 1.51224 -23.3537 -2.13901
rradius 34.4412
rwrist -10.1552
rhand -39.8129 -48.0111
rfingers 7.12502
rthumb -12.7874 -437.6
lclavicle -4.39811e-014 3.97569e-015
lhumerus -50.5511 -36.3188 113.883
lradius 52.9259
lwrist 30.0862
lhand 25.7298 28.76
lfingers 7.12502
lthumb 49.8304 50.0713
rfemur -20.0228 -11.5602 -2.0858
rtibia 46.3784
rfoot -25.9221 -2.91027
rtoes -38.5742
lfemur -5.32128 -19.6913 4.76001
ltibia 15.4772
lfoot -20.4291 10.7589
ltoes -34.4703
680
root 3.7381 15.6053 29.5218 4.43121 6.23138 1.45992
lowerback -1.27884 -2.53302 1.68542
upperback 0.498887 -3.38294 -2.46004
thorax 0.981592 -1.67413 -3.5359
lowerneck -6.81213 -1.32307 4.86921
upperneck 6.19705 -2.44322 2.51053
head 3.16432 -0.993979 -0.14912
rclavicle 1.04859e-014 9.14409e-015
rhumerus 1.45957 -23.325 -2.13627
rradius 34.4078
rwrist -10.0946
rhand -39.8326 -47.9193
rfingers 7.12502
rthumb -12.8064 -437.507
lclavicle 1.04859e-014 9.14409e-015
lhumerus -50.5334 -36.4197 113.881
lradius 52.9111
lwrist 30.1378
lhand 25.7415 28.7998
lfingers 7.12502
lthumb 49.841 50.1056
rfemur -20.0634 -11.5992 -2.01768
rtibia 46.4011
rfoot -25.9464 -2.81068
rtoes -38.5514
lfemur -5.317 -19.6709 4.82778
ltibia 15.4889
lfoot -20.4201 10.7767
ltoes -34.4923
681
root 3.73591 15.6044 29.5183 4.41721 6.19602 1.39747
lowerback -1.29926 -2.51149 1.66758
upperback 0.515871 -3.35363 -2.47345
thorax 1.01284 -1.65884 -3.54093
lowerneck -6.87593 -1.34327 4.8759
upperneck 6.25662 -2.48258 2.57618
head 3.19754 -1.00845 -0.13174
rclavicle 1.04362e-015 -1.90833e-014
rhumerus 1.41097 -23.2963 -2.12638
rradius 34.3563
rwrist -9.9988
rhand -39.83 -47.8305
rfingers 7.12502
rthumb -12.8039 -437.418
lclavicle 1.04362e-015 -1.90833e-014
lhumerus -50.5163 -36.5131 113.88
lradius 52.8969
lwrist 30.1904
lhand 25.7464 28.8423
lfingers 7.12502
lthumb 49.8455 50.1458
rfemur -20.1072 -11.6327 -1.94452
rtibia 46.4267
rfoot -25.9676 -2.71332
rtoes -38.5256
lfemur -5.30824 -19.6563 4.89789
ltibia 15.5018
lfoot -20.4118 10.8067
ltoes -34.5174
682
root 3.73404 15.6035 29.5149 4.40196 6.15113 1.33594
lowerback -1.31617 -2.48669 1.64977
upperback 0.532132 -3.31994 -2.4846
thorax 1.04182 -1.64142 -3.54335
lowerneck -6.93246 -1.36147 4.87753
upperneck 6.30709 -2.51801 2.64183
head 3.22639 -1.02137 -0.113164
rclavicle 1.59028e-015 1.78906e-014
rhumerus 1.36578 -23.2656 -2.10931
rradius 34.2936
rwrist -9.88265
rhand -39.802 -47.7263
rfingers 7.12502
rthumb -12.777 -437.315
lclavicle 1.59028e-015 1.78906e-014
lhumerus -50.5 -36.5935 113.881
lradius 52.8848
lwrist 30.2319
lhand 25.7419 28.868
lfingers 7.12502
lthumb 49.8414 50.1736
rfemur -20.1562 -11.6563 -1.87304
rtibia 46.4559
rfoot -25.9855 -2.61285
rtoes -38.4873
lfemur -5.29159 -19.652 4.96233
ltibia 15.5162
lfoot -20.4019 10.8567
ltoes -34.5467
